<?xml version="1.0" encoding="UTF-8"?><svg id="Logos" xmlns="http://www.w3.org/2000/svg" viewBox="0 0 144 57"><defs><style>.cls-1{fill:#ff4545;}.cls-2{fill:#fff;}.cls-3{fill:#509bff;}</style></defs><g id="Flattened"><polygon class="cls-1" points="138.9131 1.5 131.312 9.1016 127.5112 5.3008 123.7104 9.1016 131.312 16.7029 142.7139 5.3008 138.9131 1.5"/><polygon class="cls-3" points="138.7856 13.9451 131.1841 21.5466 127.3833 17.7458 123.5825 21.5466 131.1841 29.1482 142.5864 17.7458 138.7856 13.9451"/><polygon class="cls-2" points="5.6387 28.6442 5.6387 23.5153 13.5996 23.5153 13.5996 20.3248 5.6387 20.3248 5.6387 15.609 14.6587 15.609 14.6587 12.2955 1.5 12.2955 1.5 31.9576 14.7959 31.9576 14.7959 28.6442 5.6387 28.6442"/><path class="cls-2" d="M18.041,11.1951h3.9048v20.7627h-3.9048V11.1951Z"/><path class="cls-2" d="M38.6245,24.5875c0-1.54-.2705-2.8896-.8115-4.0488-.541-1.1602-1.3086-2.0537-2.3032-2.6816s-2.1655-.9424-3.5127-.9424-2.5488.3193-3.6025.9561c-1.0542.6377-1.877,1.5381-2.4683,2.7021s-.8867,2.5205-.8867,4.0693c0,1.5684.2886,2.9219.8662,4.0635.5771,1.1416,1.3999,2.0146,2.4678,2.6191,1.0679.6055,2.2988.9082,3.6919.9082.9351,0,1.7944-.1377,2.5781-.4131.7837-.2744,1.4761-.6758,2.0767-1.2031.6001-.5264,1.0835-1.1572,1.4502-1.8906l-3.0796-1.416c-.2114.458-.4585.8457-.7427,1.1621s-.6099.5518-.9761.708c-.3672.1562-.7749.2334-1.2241.2334-.6416,0-1.1895-.165-1.6431-.4951s-.8022-.834-1.0449-1.5117c-.1967-.5488-.3093-1.2266-.3469-2.0215h9.5114v-.7979ZM30.4224,20.2701c.4355-.3574.9697-.5361,1.6021-.5361.623,0,1.1362.165,1.54.4951.4033.3301.7031.8135.9004,1.4502.1294.4185.212.9111.2565,1.4648h-5.5511c.0554-.4741.1371-.9146.2623-1.2998.2246-.6914.5542-1.2168.9897-1.5742Z"/><path class="cls-2" d="M44.124,31.2839c-1.0264-.6328-1.8174-1.5234-2.3716-2.6738-.5547-1.1504-.832-2.4961-.832-4.0361,0-1.5674.2817-2.9268.8457-4.0771.5635-1.1504,1.3657-2.0352,2.4062-2.6533,1.04-.6191,2.248-.9287,3.623-.9287,1.54,0,2.8052.3672,3.7949,1.1006.9902.7334,1.7002,1.792,2.1313,3.1758l-3.4512,1.0732c-.1562-.5322-.335-.9814-.5361-1.3477-.2021-.3672-.4541-.6514-.7563-.8525-.3027-.2021-.6738-.3027-1.1138-.3027-.6143,0-1.1343.1787-1.5605.5361s-.7495.8936-.9697,1.6094c-.2197.7148-.3296,1.6035-.3296,2.667,0,1.0547.105,1.9414.3159,2.6611s.5273,1.2578.9487,1.6152c.4219.3574.9443.5361,1.5679.5361.4487,0,.834-.0986,1.1548-.2959.3208-.1963.5913-.4805.811-.8525.2202-.3711.4033-.8359.5503-1.3955l3.4512,1.0586c-.2842.9541-.7129,1.751-1.2856,2.3926s-1.2627,1.126-2.0693,1.4512-1.71.4883-2.709.4883c-1.3838,0-2.5894-.3164-3.6162-.9492Z"/><path class="cls-2" d="M64.9141,28.5748c-.3574.1836-.7173.3262-1.0796.4268s-.6943.1514-.9966.1514c-.2935,0-.5342-.0527-.7222-.1582s-.3228-.2656-.4053-.4814c-.0825-.2148-.124-.4971-.124-.8457v-7.5762h3.5337v-2.9014h-3.5337v-4.2207l-3.9185.6045v3.6162h-2.3789v2.9014h2.3789v7.6592c0,1.0166.1558,1.8555.4673,2.5156s.7905,1.1533,1.437,1.4785c.646.3252,1.4551.4883,2.4268.4883.6416,0,1.2583-.0605,1.8491-.1787.5913-.1191,1.1392-.2979,1.6436-.5371l-.5776-2.9424Z"/><path class="cls-2" d="M72.3799,11.1951v3.5889h-4.125v-3.5889h4.125ZM68.3511,17.1902h3.9053v14.7676h-3.9053v-14.7676Z"/><path class="cls-2" d="M78.7388,31.2839c-1.0679-.6328-1.8906-1.5234-2.4678-2.6738-.5776-1.1504-.8662-2.4961-.8662-4.0361s.2861-2.8848.8594-4.0352c.5728-1.1504,1.3955-2.042,2.4678-2.6748,1.0728-.6328,2.3193-.9492,3.7402-.9492,1.4482,0,2.7017.3164,3.7607.9492,1.0586.6328,1.8789,1.5244,2.4609,2.6748s.873,2.4951.873,4.0352-.291,2.8857-.873,4.0361-1.4023,2.041-2.4609,2.6738c-1.0591.6328-2.3125.9492-3.7607.9492-1.4209,0-2.6655-.3164-3.7334-.9492ZM84.1357,28.8367c.4492-.3662.7837-.9102,1.0039-1.6299.2197-.7188.3301-1.5967.3301-2.6328s-.1104-1.9131-.3301-2.6328c-.2202-.7197-.5547-1.2627-1.0039-1.6299-.4492-.3662-1.0034-.5498-1.6636-.5498-.6509,0-1.2012.1836-1.6499.5498-.4492.3672-.7837.9102-1.0039,1.6299s-.3301,1.5967-.3301,2.6328.1099,1.9141.3301,2.6328c.2202.7197.5547,1.2637,1.0039,1.6299.4487.3662.999.5498,1.6499.5498.6602,0,1.2144-.1836,1.6636-.5498Z"/><path class="cls-2" d="M105.0376,19.3121c-.3574-.7832-.8867-1.3789-1.5884-1.7871-.7012-.4082-1.5518-.6123-2.5508-.6123-.7061,0-1.3638.1055-1.9736.3164s-1.1895.541-1.7393.9902c-.3261.2664-.6415.592-.9515.9482l-.1628-1.9795h-3.5615v14.7695h3.9053v-9.9761c.3496-.5835.7811-1.0522,1.3066-1.3901.5503-.3525,1.146-.5293,1.7876-.5293.7061,0,1.2402.2109,1.6021.6328.3623.4219.5435,1.0635.5435,1.9248v9.3379h3.9194v-9.792c0-1.1182-.1787-2.0693-.5366-2.8535Z"/><path class="cls-2" d="M117.6787,24.0651c-.7017-.4395-1.625-.834-2.771-1.1826-.7241-.2197-1.2788-.4189-1.6636-.5977s-.6553-.3672-.811-.5645c-.1562-.1963-.2339-.4277-.2339-.6943,0-.2832.0732-.5293.2202-.7354.1465-.2061.3574-.3623.6323-.4678.2749-.1045.5957-.1582.9624-.1582.4307,0,.8364.0693,1.2168.207.3804.1367.731.3457,1.0518.625.2722.2378.5083.5212.7211.8342l2.1611-2.1611c-.5111-.6641-1.1456-1.1948-1.9194-1.5745-.9263-.4531-1.9663-.6807-3.1216-.6807-1.0996,0-2.0737.1904-2.9219.5713-.8477.3799-1.5054.917-1.9727,1.6084-.4678.6924-.7017,1.4873-.7017,2.3857,0,.752.1675,1.4092.502,1.9736.3345.5635.8569,1.0586,1.5674,1.4844.7104.4268,1.6343.8135,2.771,1.1621.6597.2012,1.1753.3984,1.5464.5908.3716.1924.6372.3965.7979.6123.1602.2158.2407.4648.2407.749,0,.2939-.0781.5479-.2339.7637-.1562.2148-.3784.3799-.667.4951-.2886.1143-.6484.1719-1.0796.1719-.4946,0-.9717-.085-1.4297-.2549-.4585-.1689-.873-.417-1.2441-.7422-.3716-.3252-.6855-.7178-.9419-1.1758l-2.3101,2.0762c.3662.6055.834,1.1211,1.4023,1.5469.5684.4268,1.2285.749,1.98.9697.7515.2197,1.5674.3301,2.4473.3301,1.1826,0,2.2163-.1904,3.1006-.5713.8848-.3799,1.5679-.9209,2.0488-1.6221.4814-.7012.7222-1.5107.7222-2.4268,0-.7607-.1699-1.4326-.5088-2.0146-.3394-.582-.8594-1.0928-1.5605-1.5332Z"/><path class="cls-2" d="M1.6787,51.437c.3955-.6719.9385-1.3252,1.6318-1.96.6934-.6338,1.5977-1.3125,2.7148-2.0342.8242-.5381,1.457-.9873,1.9023-1.3486s.7881-.75,1.0273-1.165c.2402-.416.3594-.8926.3594-1.4307,0-.5371-.124-.9932-.3711-1.3672-.248-.373-.6016-.6553-1.0586-.8438-.459-.1895-1.002-.2842-1.6328-.2842-.5879,0-1.1084.0996-1.5625.2969-.4531.1973-.8535.502-1.2031.9131-.3477.4121-.6523.9414-.9131,1.5879l-1.7637-.8193c.335-.7979.7686-1.4756,1.2979-2.0352.5293-.5586,1.1484-.9805,1.8584-1.2656.71-.2861,1.4971-.4287,2.3623-.4287,1,0,1.8809.1748,2.6465.5225.7637.3486,1.3604.8447,1.7891,1.4873.4277.6426.6426,1.3877.6426,2.2363,0,.7227-.168,1.3818-.5039,1.9785s-.7861,1.1426-1.3486,1.6377c-.5635.4961-1.2939,1.042-2.1924,1.6377-.9658.6309-1.7305,1.1826-2.293,1.6572s-1.0273.9707-1.3926,1.4873-.6279,1.1064-.7871,1.7695l-.252-.4785h8.9453v1.8145H.7715v-1.2979c.21-.8398.5117-1.5957.9072-2.2676Z"/><path class="cls-2" d="M16.6914,54.3286c-.8691-.6172-1.5312-1.5225-1.9844-2.7158-.4531-1.1924-.6807-2.6455-.6807-4.3594s.2275-3.167.6807-4.3594,1.1152-2.0977,1.9844-2.7158c.8691-.6172,1.9131-.9258,3.1309-.9258s2.2617.3086,3.1309.9258c.8691.6182,1.5352,1.5234,1.998,2.7158.4609,1.1924.6924,2.6455.6924,4.3594s-.2314,3.167-.6924,4.3594c-.4629,1.1934-1.1289,2.0986-1.998,2.7158s-1.9131.9258-3.1309.9258-2.2617-.3086-3.1309-.9258ZM21.8574,52.8286c.541-.4492.9512-1.1357,1.2285-2.0596s.416-2.0957.416-3.5156-.1387-2.5908-.416-3.5156c-.2773-.9238-.6875-1.6104-1.2285-2.0596-.542-.4492-1.2207-.6748-2.0352-.6748-.8066,0-1.4805.2256-2.0215.6748-.543.4492-.9521,1.1357-1.2285,2.0596-.2773.9248-.416,2.0957-.416,3.5156s.1387,2.5918.416,3.5156c.2764.9238.6855,1.6104,1.2285,2.0596.541.4502,1.2148.6748,2.0215.6748.8145,0,1.4932-.2246,2.0352-.6748Z"/><path class="cls-2" d="M28.4658,51.437c.3955-.6719.9385-1.3252,1.6318-1.96.6934-.6338,1.5977-1.3125,2.7148-2.0342.8242-.5381,1.457-.9873,1.9023-1.3486s.7881-.75,1.0273-1.165c.2402-.416.3594-.8926.3594-1.4307,0-.5371-.124-.9932-.3711-1.3672-.248-.373-.6016-.6553-1.0586-.8438-.459-.1895-1.002-.2842-1.6328-.2842-.5879,0-1.1084.0996-1.5625.2969-.4531.1973-.8535.502-1.2031.9131-.3477.4121-.6523.9414-.9131,1.5879l-1.7637-.8193c.335-.7979.7686-1.4756,1.2979-2.0352.5293-.5586,1.1484-.9805,1.8584-1.2656.71-.2861,1.4971-.4287,2.3623-.4287,1,0,1.8809.1748,2.6465.5225.7637.3486,1.3604.8447,1.7891,1.4873.4277.6426.6426,1.3877.6426,2.2363,0,.7227-.168,1.3818-.5039,1.9785s-.7861,1.1426-1.3486,1.6377c-.5635.4961-1.2939,1.042-2.1924,1.6377-.9658.6309-1.7305,1.1826-2.293,1.6572s-1.0273.9707-1.3926,1.4873-.6279,1.1064-.7871,1.7695l-.252-.4785h8.9453v1.8145h-10.8105v-1.2979c.21-.8398.5117-1.5957.9072-2.2676Z"/><path class="cls-2" d="M42.5156,54.564c-.8877-.5225-1.5938-1.291-2.1191-2.3057l1.6641-1.1279c.2402.5625.5293,1.0283.8652,1.3965.3359.3691.7246.6426,1.166.8213s.9258.2686,1.4512.2686c.6719,0,1.2549-.1406,1.752-.4219.4961-.2812.875-.6865,1.1387-1.2158.2627-.5293.3945-1.1582.3945-1.8887,0-.7227-.1309-1.3506-.3887-1.8828-.2598-.5332-.6338-.9385-1.123-1.2158s-1.0664-.416-1.7305-.416-1.2539.1279-1.7676.3828c-.5156.2559-.9629.6064-1.3418,1.0518l-1.5-.7227.9307-7.8184h8.2236v1.7959h-7.3691l.8428-1.1064-.7881,6.625-.373-.5146c.4668-.4893.9824-.8506,1.5449-1.084.5615-.2334,1.1973-.3506,1.9043-.3506,1.0078,0,1.8965.2158,2.666.6465.7715.4307,1.3652,1.0342,1.7852,1.8115s.6299,1.6699.6299,2.6777c0,1.0361-.2207,1.9619-.6621,2.7754-.4424.8145-1.0713,1.4512-1.8896,1.9111-.8164.46-1.7734.6895-2.8682.6895-1.1396,0-2.1514-.2607-3.0381-.7822Z"/></g></svg>